<?xml version="1.0" standalone="no"?>
<!DOCTYPE svg PUBLIC "-//W3C//DTD SVG 1.1//EN" "http://www.w3.org/Graphics/SVG/1.1/DTD/svg11.dtd" >
<!--
2013-9-30: Created.
-->
<svg>
<metadata>
Created by iconfont
</metadata>
<defs>

<font id="iconfont" horiz-adv-x="1024" >
  <font-face
    font-family="iconfont"
    font-weight="500"
    font-stretch="normal"
    units-per-em="1024"
    ascent="896"
    descent="-128"
  />
    <missing-glyph />
    
    <glyph glyph-name="icon-PDFwenjian" unicode="&#59333;" d="M644.266667 810.666667H273.066667C213.333333 810.666667 166.4 763.733333 166.4 704v-640C166.4 4.266667 213.333333-42.666667 273.066667-42.666667h477.866666c59.733333 0 106.666667 46.933333 106.666667 106.666667V597.333333l-213.333333 213.333334zM699.733333 597.333333c-29.866667 0-55.466667 25.6-55.466666 55.466667V810.666667l213.333333-213.333334h-157.866667zM695.466667 213.333333c-38.4 4.266667-72.533333 17.066667-102.4 42.666667-55.466667-12.8-110.933333-29.866667-166.4-51.2-42.666667-76.8-85.333333-115.2-119.466667-115.2-8.533333 0-17.066667 0-21.333333 4.266667-17.066667 8.533333-25.6 21.333333-25.6 38.4 0 12.8 4.266667 46.933333 136.533333 106.666666 29.866667 55.466667 55.466667 110.933333 72.533333 174.933334-17.066667 34.133333-51.2 115.2-29.866666 157.866666 8.533333 17.066667 25.6 25.6 42.666666 21.333334 12.8 0 29.866667-8.533333 38.4-17.066667 17.066667-25.6 17.066667-76.8-8.533333-157.866667 21.333333-42.666667 51.2-81.066667 85.333333-110.933333 29.866667 4.266667 59.733333 8.533333 89.6 8.533333 64 0 76.8-34.133333 72.533334-51.2 4.266667-51.2-42.666667-51.2-64-51.2z m-392.533334-85.333333c25.6 8.533333 38.4 21.333333 51.2 38.4-21.333333-8.533333-38.4-21.333333-51.2-38.4z m183.466667 418.133333h-8.533333c-4.266667-25.6 0-46.933333 8.533333-72.533333 8.533333 21.333333 8.533333 46.933333 0 72.533333z m12.8-204.8c-17.066667-34.133333-29.866667-64-42.666667-98.133333h4.266667v-4.266667c29.866667 12.8 64 21.333333 93.866667 29.866667-21.333333 25.6-42.666667 51.2-55.466667 72.533333z m187.733333-72.533333c-12.8 0-25.6 0-38.4-4.266667 12.8-8.533333 29.866667-8.533333 42.666667-12.8 8.533333 0 21.333333 0 29.866667 4.266667 0 4.266667-4.266667 12.8-34.133334 12.8z m0 0"  horiz-adv-x="1024" />

    
    <glyph glyph-name="icon-pptwenjian" unicode="&#59334;" d="M644.266667 810.666667H273.066667C213.333333 810.666667 166.4 763.733333 166.4 704v-640C166.4 4.266667 213.333333-42.666667 273.066667-42.666667h477.866666c59.733333 0 106.666667 46.933333 106.666667 106.666667V597.333333l-213.333333 213.333334zM699.733333 597.333333c-29.866667 0-55.466667 25.6-55.466666 55.466667V810.666667l213.333333-213.333334h-157.866667zM452.266667 106.666667H362.666667V524.8h128c115.2 0 170.666667-42.666667 170.666666-128-4.266667-81.066667-51.2-123.733333-145.066666-128h-64v-162.133333z m0 345.6v-119.466667h25.6c59.733333-4.266667 89.6 12.8 89.6 59.733333 0 42.666667-29.866667 59.733333-89.6 59.733334h-25.6z"  horiz-adv-x="1024" />

    
    <glyph glyph-name="icon-wordwenjian" unicode="&#59335;" d="M644.266667 810.666667H273.066667C213.333333 810.666667 166.4 763.733333 166.4 704v-640C166.4 4.266667 213.333333-42.666667 273.066667-42.666667h477.866666c59.733333 0 106.666667 46.933333 106.666667 106.666667V597.333333l-213.333333 213.333334zM699.733333 597.333333c-29.866667 0-55.466667 25.6-55.466666 55.466667V810.666667l213.333333-213.333334h-157.866667zM405.333333 226.133333l68.266667 268.8h85.333333l59.733334-268.8L682.666667 494.933333h72.533333l-89.6-358.4h-85.333333L512 409.6l-68.266667-273.066667h-85.333333l-85.333333 358.4h81.066666l51.2-268.8z"  horiz-adv-x="1024" />

    
    <glyph glyph-name="icon-excelwenjian" unicode="&#59336;" d="M644.266667 810.666667H273.066667C213.333333 810.666667 166.4 763.733333 166.4 704v-640C166.4 4.266667 213.333333-42.666667 273.066667-42.666667h477.866666c59.733333 0 106.666667 46.933333 106.666667 106.666667V597.333333l-213.333333 213.333334zM699.733333 597.333333c-29.866667 0-55.466667 25.6-55.466666 55.466667V810.666667l213.333333-213.333334h-157.866667zM580.266667 311.466667l115.2-179.2h-123.733334l-68.266666 128-68.266667-128H328.533333l119.466667 187.733333-115.2 162.133333h123.733333l64-115.2 68.266667 115.2h106.666667l-115.2-170.666666z"  horiz-adv-x="1024" />

    
    <glyph glyph-name="icon-bianji" unicode="&#59337;" d="M392.533333 196.266667s-4.266667-4.266667-8.533333-4.266667l-119.466667-25.6 29.866667-29.866667 25.6 119.466667s4.266667 4.266667 4.266667 8.533333l405.333333 405.333334c8.533333 8.533333 8.533333 25.6 0 38.4-8.533333 8.533333-25.6 8.533333-38.4 0l-405.333333-405.333334c-8.533333-8.533333-17.066667-21.333333-17.066667-34.133333l-25.6-119.466667c-4.266667-21.333333 12.8-38.4 29.866667-34.133333l119.466666 25.6c12.8 4.266667 25.6 8.533333 34.133334 17.066667l405.333333 405.333333c8.533333 8.533333 8.533333 25.6 0 38.4-8.533333 8.533333-25.6 8.533333-38.4 0l-401.066667-405.333333z m46.933334 516.266666H166.4c-21.333333 0-38.4-17.066667-38.4-38.4v-635.733333c0-21.333333 17.066667-38.4 38.4-38.4h635.733333c21.333333 0 38.4 17.066667 38.4 38.4v409.6c0 12.8-12.8 25.6-25.6 25.6s-25.6-12.8-25.6-25.6v-409.6c0 8.533333 4.266667 12.8 12.8 12.8H166.4c8.533333 0 12.8-4.266667 12.8-12.8V674.133333c0-8.533333-4.266667-12.8-12.8-12.8h409.6c12.8 0 25.6 12.8 25.6 25.6s-12.8 25.6-25.6 25.6h-136.533333z m443.733333-98.133333c17.066667 17.066667 17.066667 38.4 0 55.466667l-85.333333 85.333333c-17.066667 17.066667-38.4 17.066667-55.466667 0l-51.2-51.2c-8.533333-8.533333-8.533333-25.6 0-38.4 8.533333-8.533333 25.6-8.533333 38.4 0l51.2 51.2c-4.266667-4.266667-12.8-4.266667-21.333333 0l85.333333-85.333333c-4.266667 4.266667-4.266667 12.8 0 21.333333l-51.2-51.2c-8.533333-8.533333-8.533333-25.6 0-38.4 8.533333-8.533333 25.6-8.533333 38.4 0l51.2 51.2z"  horiz-adv-x="1024" />

    
    <glyph glyph-name="icon-textwenjian" unicode="&#59338;" d="M635.733333 554.666667l-192-59.733334c-21.333333-8.533333-42.666667-29.866667-42.666666-55.466666v-200.533334s-12.8 8.533333-42.666667 4.266667c-46.933333-8.533333-81.066667-42.666667-81.066667-76.8 0-38.4 38.4-59.733333 81.066667-51.2 46.933333 8.533333 76.8 38.4 76.8 76.8V384c0 17.066667 21.333333 21.333333 21.333333 21.333333l170.666667 51.2s17.066667 4.266667 17.066667-12.8v-162.133333s-17.066667 8.533333-46.933334 4.266667c-46.933333 4.266667-85.333333-29.866667-85.333333-64 0-38.4 38.4-59.733333 81.066667-55.466667 46.933333 4.266667 81.066667 38.4 81.066666 76.8V524.8c0 21.333333-17.066667 34.133333-38.4 29.866667z m0 0M644.266667 810.666667H273.066667C213.333333 810.666667 166.4 763.733333 166.4 704v-640C166.4 4.266667 213.333333-42.666667 273.066667-42.666667h477.866666c59.733333 0 106.666667 46.933333 106.666667 106.666667V597.333333l-213.333333 213.333334zM699.733333 597.333333c-29.866667 0-55.466667 25.6-55.466666 55.466667V810.666667l213.333333-213.333334h-157.866667zM738.133333 516.266667v-85.333334h-170.666666v-341.333333h-85.333334v341.333333h-170.666666v85.333334h426.666666z"  horiz-adv-x="1024" />

    
    <glyph glyph-name="icon-chenggong" unicode="&#59339;" d="M512 768c-213.333333 0-384-170.666667-384-384s170.666667-384 384-384 384 170.666667 384 384-170.666667 384-384 384z m230.4-277.333333l-264.533333-273.066667s0-4.266667-4.266667-4.266667c-8.533333-8.533333-25.6-8.533333-38.4 0l-132.266667 132.266667c-8.533333 12.8-8.533333 29.866667 0 38.4 12.8 12.8 25.6 12.8 38.4 0l110.933334-115.2 251.733333 256c8.533333 12.8 25.6 12.8 38.4 0 12.8-4.266667 12.8-21.333333 0-34.133333z"  horiz-adv-x="1024" />

    
    <glyph glyph-name="icon-cuowu" unicode="&#59340;" d="M512 0c-213.333333 0-384 170.666667-384 384s170.666667 384 384 384 384-170.666667 384-384-170.666667-384-384-384z m145.066667 494.933333c8.533333 8.533333 8.533333 25.6 0 34.133334-8.533333 8.533333-25.6 8.533333-34.133334 0l-119.466666-119.466667L384 529.066667c-8.533333 8.533333-25.6 8.533333-34.133333 0s-8.533333-25.6 0-34.133334l119.466666-119.466666L349.866667 256c-8.533333-8.533333-8.533333-25.6 0-34.133333 12.8-8.533333 25.6-8.533333 34.133333 0l119.466667 119.466666 119.466666-119.466666c8.533333-8.533333 25.6-8.533333 34.133334 0 8.533333 8.533333 8.533333 25.6 0 34.133333l-119.466667 119.466667 119.466667 119.466666z"  horiz-adv-x="1024" />

    
    <glyph glyph-name="icon-jinggao" unicode="&#59341;" d="M512 768c-209.066667 0-384-174.933333-384-384 0-213.333333 174.933333-384 384-384 213.333333 0 384 174.933333 384 384s-174.933333 384-384 384z m0-588.8c-21.333333 0-42.666667 17.066667-42.666667 42.666667s21.333333 42.666667 42.666667 42.666666 42.666667-17.066667 42.666667-42.666666-21.333333-42.666667-42.666667-42.666667z m34.133333 157.866667c0-25.6-12.8-51.2-34.133333-51.2-25.6 0-34.133333 21.333333-34.133333 51.2l-12.8 204.8c0 25.6 21.333333 51.2 46.933333 51.2s51.2-21.333333 51.2-51.2l-17.066667-204.8z m0 0"  horiz-adv-x="1024" />

    
    <glyph glyph-name="icon-juanzongbianmu" unicode="&#59342;" d="M925.866667 418.133333s-170.666667-110.933333-298.666667-290.133333L512 230.4l-51.2-46.933333 200.533333-226.133334s93.866667 251.733333 277.333334 430.933334l-12.8 29.866666zM85.333333 810.666667h119.466667v-102.4H85.333333V810.666667z m187.733334 0h473.6v-102.4H273.066667V810.666667zM85.333333 503.466667h119.466667v-102.4H85.333333V503.466667z m187.733334 0h473.6v-102.4H273.066667V503.466667zM85.333333 200.533333h119.466667v-102.4H85.333333v102.4z m187.733334 0h136.533333v-102.4H273.066667v102.4z m0 0"  horiz-adv-x="1024" />

    
    <glyph glyph-name="icon-mima" unicode="&#59343;" d="M648.533333 448H226.133333c-29.866667 0-55.466667-21.333333-55.466666-51.2v-371.2c0-29.866667 25.6-51.2 55.466666-51.2h571.733334c29.866667 0 55.466667 21.333333 55.466666 51.2v371.2c0 29.866667-25.6 51.2-55.466666 51.2h-149.333334z m-106.666666-243.2v-81.066667c0-4.266667-4.266667-8.533333-8.533334-8.533333h-46.933333c-4.266667 0-8.533333 4.266667-8.533333 8.533333v81.066667c-21.333333 8.533333-38.4 29.866667-38.4 55.466667 0 34.133333 29.866667 64 68.266666 64 38.4 0 68.266667-29.866667 68.266667-64 4.266667-25.6-12.8-46.933333-34.133333-55.466667z m0 0M375.466667 580.266667c0 68.266667 59.733333 128 136.533333 128 76.8 0 136.533333-55.466667 136.533333-128v-132.266667h85.333334V584.533333c0 110.933333-98.133333 204.8-221.866667 204.8-123.733333 0-221.866667-93.866667-221.866667-204.8v-136.533333h85.333334V580.266667z m0 0"  horiz-adv-x="1024" />

    
    <glyph glyph-name="icon-qitawenjian" unicode="&#59344;" d="M644.266667 810.666667H273.066667C213.333333 810.666667 166.4 763.733333 166.4 704v-640C166.4 4.266667 213.333333-42.666667 273.066667-42.666667h477.866666c59.733333 0 106.666667 46.933333 106.666667 106.666667V597.333333l-213.333333 213.333334zM699.733333 597.333333c-29.866667 0-55.466667 25.6-55.466666 55.466667V810.666667l213.333333-213.333334h-157.866667zM465.066667 136.533333c0-12.8 4.266667-21.333333 17.066666-25.6 8.533333-4.266667 21.333333-4.266667 29.866667 0 8.533333 4.266667 17.066667 17.066667 17.066667 25.6 0 12.8-4.266667 21.333333-17.066667 25.6-8.533333 4.266667-21.333333 4.266667-29.866667 0-12.8-4.266667-17.066667-12.8-17.066666-25.6z m0 0M512 576c-76.8 0-136.533333-59.733333-136.533333-136.533333 0-17.066667 12.8-25.6 25.6-25.6s25.6 12.8 25.6 25.6c0 46.933333 38.4 81.066667 81.066666 81.066666s81.066667-38.4 81.066667-81.066666c0-29.866667-21.333333-51.2-51.2-81.066667s-72.533333-68.266667-81.066667-136.533333c0-17.066667 8.533333-29.866667 25.6-29.866667h4.266667c12.8 0 25.6 8.533333 25.6 25.6 4.266667 46.933333 34.133333 72.533333 64 102.4s64 64 68.266667 119.466667c4.266667 76.8-55.466667 136.533333-132.266667 136.533333z m0 0"  horiz-adv-x="1024" />

    
    <glyph glyph-name="icon-quxiao" unicode="&#59345;" d="M866.133333 533.333333c-21.333333 46.933333-46.933333 85.333333-81.066666 123.733334-34.133333 34.133333-76.8 64-123.733334 81.066666-46.933333 21.333333-98.133333 29.866667-149.333333 29.866667s-102.4-8.533333-149.333333-29.866667c-46.933333-21.333333-85.333333-46.933333-123.733334-81.066666S179.2 580.266667 157.866667 533.333333C136.533333 486.4 128 435.2 128 384s8.533333-102.4 29.866667-149.333333c21.333333-46.933333 46.933333-85.333333 81.066666-123.733334 34.133333-34.133333 76.8-64 123.733334-81.066666 46.933333-21.333333 98.133333-29.866667 149.333333-29.866667s102.4 8.533333 149.333333 29.866667c46.933333 21.333333 85.333333 46.933333 123.733334 81.066666 34.133333 34.133333 64 76.8 81.066666 123.733334 21.333333 46.933333 29.866667 98.133333 29.866667 149.333333s-8.533333 102.4-29.866667 149.333333zM512 51.2c-183.466667 0-332.8 149.333333-332.8 332.8S328.533333 716.8 512 716.8s332.8-149.333333 332.8-332.8-149.333333-332.8-332.8-332.8zM678.4 554.666667c-8.533333 8.533333-25.6 8.533333-34.133333 0l-136.533334-136.533334L375.466667 554.666667c-12.8 8.533333-25.6 8.533333-34.133334 0s-8.533333-25.6 0-34.133334l136.533334-136.533333L341.333333 247.466667c-8.533333-8.533333-8.533333-25.6 0-34.133334s25.6-8.533333 34.133334 0l136.533333 136.533334 136.533333-136.533334c8.533333-8.533333 25.6-8.533333 34.133334 0 8.533333 8.533333 8.533333 25.6 0 34.133334L546.133333 384 682.666667 520.533333c4.266667 8.533333 4.266667 25.6-4.266667 34.133334z"  horiz-adv-x="1024" />

    
    <glyph glyph-name="icon-shanchu" unicode="&#59346;" d="M593.066667 166.4c-17.066667 0-25.6 12.8-25.6 25.6V494.933333c0 17.066667 12.8 25.6 25.6 25.6s25.6-12.8 25.6-25.6v-302.933333c4.266667-17.066667-8.533333-25.6-25.6-25.6z m-162.133334 0c-17.066667 0-25.6 12.8-25.6 25.6V494.933333c0 17.066667 12.8 25.6 25.6 25.6 17.066667 0 25.6-12.8 25.6-25.6v-302.933333c0-17.066667-12.8-25.6-25.6-25.6zM870.4 631.466667h-136.533333V686.933333c0 46.933333-38.4 81.066667-81.066667 81.066667H375.466667c-46.933333 0-81.066667-38.4-81.066667-81.066667v-55.466666H153.6c-12.8 0-25.6-12.8-25.6-29.866667 0-17.066667 12.8-25.6 25.6-25.6h712.533333c17.066667 0 25.6 12.8 25.6 25.6s-8.533333 29.866667-21.333333 29.866667zM345.6 686.933333c0 17.066667 12.8 25.6 25.6 25.6h273.066667c17.066667 0 25.6-12.8 25.6-25.6v-55.466666H345.6V686.933333zM704 0h-384c-46.933333 0-81.066667 38.4-81.066667 81.066667V494.933333c0 17.066667 12.8 25.6 25.6 25.6s25.6-12.8 25.6-25.6v-413.866666c0-17.066667 12.8-25.6 25.6-25.6h384c17.066667 0 25.6 12.8 25.6 25.6V494.933333c0 17.066667 12.8 25.6 25.6 25.6s25.6-12.8 25.6-25.6V85.333333c8.533333-46.933333-25.6-85.333333-72.533333-85.333333z"  horiz-adv-x="1024" />

    
    <glyph glyph-name="icon-shangchuan" unicode="&#59347;" d="M870.4 42.666667H153.6c-12.8 0-25.6 12.8-25.6 25.6v209.066666c0 12.8 12.8 25.6 25.6 25.6s25.6-12.8 25.6-25.6v-183.466666h665.6v183.466666c0 12.8 12.8 25.6 25.6 25.6s25.6-12.8 25.6-25.6v-209.066666c0-12.8-12.8-25.6-25.6-25.6zM622.933333 524.8l-85.333333 106.666667V256c0-12.8-12.8-25.6-25.6-25.6s-25.6 12.8-25.6 25.6V627.2l-85.333333-102.4c-8.533333-12.8-25.6-12.8-34.133334 0-8.533333 8.533333-8.533333 25.6 0 38.4l128 157.866667c4.266667 4.266667 8.533333 4.266667 17.066667 4.266666s12.8 0 21.333333-8.533333l128-157.866667c8.533333-8.533333 8.533333-25.6 0-38.4-12.8-8.533333-29.866667-8.533333-38.4 4.266667z"  horiz-adv-x="1024" />

    
    <glyph glyph-name="icon-shangchuanwenjian" unicode="&#59348;" d="M644.266667 768H251.733333c-25.6 0-42.666667-17.066667-42.666666-42.666667v-682.666666c0-25.6 17.066667-42.666667 42.666666-42.666667h524.8c25.6 0 42.666667 17.066667 42.666667 42.666667V601.6L644.266667 768z m-311.466667-298.666667h358.4v-59.733333H332.8V469.333333z m0-136.533333h315.733333v-59.733333H332.8v59.733333z m200.533333-196.266667H332.8v59.733334h200.533333v-59.733334z m213.333334-29.866666l-34.133334 38.4v-132.266667h-42.666666v128l-38.4-38.4-29.866667 29.866667 89.6 93.866666 89.6-93.866666-34.133333-25.6z"  horiz-adv-x="1024" />

    
    <glyph glyph-name="icon-shangchuanwenjianjia" unicode="&#59349;" d="M896 533.333333v-426.666666c0-25.6-17.066667-42.666667-42.666667-42.666667h-256v213.333333h102.4l-166.4 166.4-166.4-166.4H469.333333v-213.333333H170.666667c-25.6 0-42.666667 17.066667-42.666667 42.666667v554.666666c0 25.6 17.066667 42.666667 42.666667 42.666667h290.133333c12.8 0 25.6-4.266667 34.133333-17.066667l68.266667-93.866666c8.533333-12.8 21.333333-17.066667 34.133333-17.066667h256c25.6 0 42.666667-17.066667 42.666667-42.666667zM533.333333 409.6z"  horiz-adv-x="1024" />

    
    <glyph glyph-name="icon-shengchengjuanzong" unicode="&#59350;" d="M780.8 810.666667H426.666667c-21.333333 0-42.666667-17.066667-42.666667-42.666667v-140.8c0-25.6-17.066667-42.666667-42.666667-42.666667H200.533333c-25.6 0-42.666667-17.066667-42.666666-42.666666V42.666667c0-46.933333 38.4-85.333333 85.333333-85.333334h541.866667c46.933333 0 85.333333 38.4 85.333333 85.333334V725.333333c-4.266667 46.933333-42.666667 85.333333-89.6 85.333334z m-89.6-640H332.8c-12.8 0-21.333333 8.533333-21.333333 21.333333s8.533333 21.333333 21.333333 21.333333h354.133333c12.8 0 21.333333-8.533333 21.333334-21.333333 4.266667-12.8-8.533333-21.333333-17.066667-21.333333z m0 140.8H332.8c-12.8 0-21.333333 8.533333-21.333333 21.333333s8.533333 21.333333 21.333333 21.333333h354.133333c12.8 0 21.333333-8.533333 21.333334-21.333333s-8.533333-21.333333-17.066667-21.333333z m0 145.066666h-226.133333c-12.8 0-21.333333 8.533333-21.333334 21.333334s8.533333 21.333333 21.333334 21.333333h226.133333c12.8 0 21.333333-8.533333 21.333333-21.333333s-12.8-21.333333-21.333333-21.333334zM187.733333 622.933333H298.666667c25.6 0 42.666667 17.066667 42.666666 42.666667V785.066667c0 17.066667-8.533333 21.333333-21.333333 8.533333L179.2 644.266667c-12.8-8.533333-8.533333-21.333333 8.533333-21.333334z m0 0"  horiz-adv-x="1024" />

    
    <glyph glyph-name="icon-shipinwenjian" unicode="&#59351;" d="M644.266667 810.666667H273.066667C213.333333 810.666667 166.4 763.733333 166.4 704v-640C166.4 4.266667 213.333333-42.666667 273.066667-42.666667h477.866666c59.733333 0 106.666667 46.933333 106.666667 106.666667V597.333333l-213.333333 213.333334zM699.733333 597.333333c-29.866667 0-55.466667 25.6-55.466666 55.466667V810.666667l213.333333-213.333334h-157.866667zM652.8 281.6v68.266667c0 8.533333 4.266667 17.066667 4.266667 17.066666l76.8 81.066667c25.6 25.6 55.466667 34.133333 55.466666 4.266667v-277.333334c0-25.6-29.866667-21.333333-55.466666 4.266667l-76.8 81.066667c0 8.533333-4.266667 17.066667-4.266667 21.333333z m-38.4-76.8c0-25.6-17.066667-42.666667-42.666667-42.666667h-298.666666c-25.6 0-42.666667 17.066667-42.666667 42.666667v226.133333c0 25.6 17.066667 42.666667 42.666667 42.666667h298.666666c25.6 0 42.666667-17.066667 42.666667-42.666667v-226.133333z m0 0"  horiz-adv-x="1024" />

    
    <glyph glyph-name="icon-shengchengshuangcengPDF" unicode="&#59352;" d="M844.8 810.666667H179.2C128 810.666667 85.333333 768 85.333333 716.8v-665.6C85.333333 0 128-42.666667 179.2-42.666667h665.6c51.2 0 93.866667 42.666667 93.866667 93.866667V716.8C938.666667 768 896 810.666667 844.8 810.666667z m-354.133333-366.933334c-12.8-34.133333-21.333333-89.6-42.666667-132.266666-8.533333-25.6-8.533333-21.333333-17.066667-34.133334h4.266667c64 17.066667 106.666667 21.333333 149.333333 29.866667-8.533333 8.533333-17.066667 12.8-21.333333 17.066667-25.6 29.866667-34.133333 38.4-72.533333 119.466666z m311.466666-200.533333c-8.533333-8.533333-21.333333-12.8-42.666666-12.8-34.133333 0-68.266667 8.533333-115.2 34.133333-81.066667-8.533333-166.4-17.066667-217.6-34.133333-4.266667 0-4.266667 0-8.533334-4.266667C358.4 128 315.733333 85.333333 277.333333 85.333333c-12.8 0-29.866667 8.533333-34.133333 12.8l-8.533333 8.533334-4.266667 4.266666c-4.266667 8.533333-4.266667 17.066667-4.266667 25.6 4.266667 25.6 34.133333 64 89.6 102.4 8.533333 8.533333 29.866667 17.066667 46.933334 25.6 12.8 21.333333 21.333333 38.4 38.4 76.8 21.333333 46.933333 38.4 106.666667 51.2 149.333334-17.066667 55.466667-29.866667 98.133333-8.533334 157.866666 8.533333 17.066667 21.333333 34.133333 38.4 34.133334h12.8c12.8 0 21.333333-4.266667 29.866667-12.8 29.866667-29.866667 17.066667-110.933333 0-174.933334v-8.533333c17.066667-55.466667 46.933333-106.666667 76.8-132.266667 12.8-8.533333 25.6-21.333333 38.4-29.866666 21.333333 4.266667 38.4 4.266667 59.733333 4.266666 59.733333 0 93.866667-8.533333 106.666667-34.133333 4.266667-8.533333 8.533333-17.066667 4.266667-25.6 4.266667-4.266667 0-17.066667-8.533334-25.6z m-29.866666 42.666667c-4.266667 4.266667-17.066667 17.066667-85.333334 17.066666-4.266667 0-12.8 0-17.066666-4.266666 34.133333-17.066667 68.266667-25.6 89.6-25.6h8.533333c4.266667 0 4.266667 0 4.266667 4.266666 4.266667 4.266667 0 4.266667 0 8.533334z m-418.133334-68.266667c-8.533333-4.266667-17.066667-12.8-21.333333-12.8-34.133333-34.133333-55.466667-64-59.733333-85.333333 21.333333 8.533333 51.2 38.4 81.066666 98.133333z m136.533334 320c4.266667 17.066667 8.533333 34.133333 12.8 42.666667v8.533333c4.266667 25.6 4.266667 42.666667-4.266667 55.466667l-8.533333 4.266666-4.266667-4.266666c-8.533333-25.6-8.533333-64 4.266667-106.666667z m0 0"  horiz-adv-x="1024" />

    
    <glyph glyph-name="icon-shezhi" unicode="&#59353;" d="M648.533333 12.8l-8.533333 8.533333c-72.533333 51.2-187.733333 51.2-260.266667 0l-8.533333-4.266666-8.533333 4.266666c-34.133333 12.8-68.266667 34.133333-98.133334 59.733334L256 85.333333v8.533334c4.266667 42.666667-8.533333 89.6-29.866667 132.266666-21.333333 38.4-59.733333 72.533333-98.133333 93.866667l-8.533333 4.266667v8.533333c-4.266667 17.066667-4.266667 38.4-4.266667 55.466667s0 38.4 4.266667 55.466666v8.533334l8.533333 4.266666c42.666667 17.066667 76.8 51.2 98.133333 93.866667 21.333333 38.4 34.133333 85.333333 29.866667 132.266667v8.533333l8.533333 4.266667c29.866667 25.6 64 42.666667 98.133334 59.733333l8.533333 4.266667 12.8-12.8c72.533333-51.2 187.733333-51.2 260.266667 0l8.533333 4.266666 8.533333-4.266666c34.133333-12.8 68.266667-34.133333 98.133334-59.733334l8.533333-4.266666v-8.533334c-4.266667-42.666667 8.533333-89.6 29.866667-132.266666 21.333333-38.4 59.733333-72.533333 98.133333-93.866667l8.533333-4.266667v-8.533333c4.266667-21.333333 4.266667-38.4 4.266667-55.466667s0-38.4-4.266667-55.466666v-8.533334l-8.533333-4.266666c-42.666667-17.066667-76.8-51.2-98.133333-93.866667-21.333333-38.4-34.133333-85.333333-29.866667-132.266667v-8.533333l-8.533333-4.266667c-29.866667-25.6-64-42.666667-98.133334-55.466666l-12.8-4.266667z m-354.133333 85.333333c25.6-17.066667 46.933333-34.133333 76.8-42.666666 81.066667 51.2 200.533333 51.2 281.6 0 25.6 12.8 51.2 25.6 76.8 42.666666 0 46.933333 8.533333 98.133333 34.133333 140.8 25.6 42.666667 64 81.066667 106.666667 102.4 0 12.8 4.266667 29.866667 4.266667 42.666667 0 12.8 0 29.866667-4.266667 42.666667-42.666667 21.333333-81.066667 59.733333-106.666667 102.4-25.6 42.666667-38.4 93.866667-34.133333 140.8-25.6 17.066667-46.933333 34.133333-76.8 42.666666-81.066667-51.2-200.533333-51.2-281.6 0-25.6-12.8-51.2-25.6-76.8-42.666666 0-46.933333-8.533333-98.133333-34.133333-140.8-25.6-42.666667-64-81.066667-106.666667-102.4 0-12.8-4.266667-29.866667-4.266667-42.666667 0-12.8 0-29.866667 4.266667-42.666667 42.666667-21.333333 81.066667-59.733333 106.666667-102.4 25.6-42.666667 38.4-93.866667 34.133333-140.8zM648.533333 0l-12.8 8.533333c-34.133333 21.333333-76.8 34.133333-123.733333 34.133334s-89.6-12.8-123.733333-34.133334l-12.8-8.533333-12.8 4.266667c-38.4 12.8-72.533333 34.133333-102.4 59.733333l-12.8 8.533333v17.066667c4.266667 42.666667-8.533333 85.333333-29.866667 123.733333-17.066667 42.666667-51.2 72.533333-89.6 89.6l-12.8 4.266667-4.266667 17.066667c-4.266667 21.333333-4.266667 38.4-4.266666 59.733333 0 21.333333 0 38.4 4.266666 59.733333l4.266667 12.8 12.8 8.533334c38.4 17.066667 72.533333 46.933333 93.866667 85.333333 21.333333 38.4 34.133333 81.066667 29.866666 123.733333v17.066667l12.8 8.533333c25.6 25.6 59.733333 46.933333 98.133334 59.733334l12.8 8.533333 12.8-8.533333c34.133333-21.333333 76.8-34.133333 123.733333-34.133334s89.6 12.8 123.733333 34.133334l12.8 8.533333 12.8-4.266667c38.4-12.8 72.533333-34.133333 102.4-59.733333l12.8-8.533333v-17.066667c-4.266667-42.666667 8.533333-85.333333 29.866667-123.733333 21.333333-38.4 55.466667-68.266667 93.866667-89.6l12.8-4.266667 4.266666-12.8c4.266667-21.333333 4.266667-38.4 4.266667-59.733333 0-17.066667 0-38.4-4.266667-59.733334l-4.266666-12.8-17.066667-12.8c-38.4-17.066667-72.533333-51.2-93.866667-89.6-21.333333-38.4-34.133333-81.066667-29.866666-123.733333v-17.066667l-12.8-8.533333c-29.866667-25.6-64-42.666667-102.4-59.733333l-8.533334-4.266667zM512 68.266667c51.2 0 98.133333-12.8 136.533333-38.4h8.533334c34.133333 12.8 68.266667 34.133333 98.133333 55.466666h4.266667v4.266667c-4.266667 46.933333 8.533333 93.866667 29.866666 136.533333 25.6 42.666667 59.733333 76.8 102.4 98.133334h4.266667v4.266666V384c0 17.066667 0 38.4-4.266667 55.466667v4.266666h-4.266666c-42.666667 21.333333-81.066667 55.466667-102.4 98.133334-25.6 42.666667-34.133333 89.6-29.866667 136.533333V682.666667h-4.266667c-29.866667 25.6-64 42.666667-98.133333 55.466666h-8.533333c-38.4-25.6-85.333333-38.4-136.533334-38.4s-93.866667 12.8-132.266666 38.4h-8.533334c-29.866667-12.8-64-29.866667-93.866666-55.466666v-4.266667c4.266667-46.933333-8.533333-93.866667-29.866667-136.533333-25.6-42.666667-59.733333-76.8-102.4-98.133334h-4.266667v-4.266666c-8.533333-17.066667-8.533333-38.4-8.533333-55.466667s0-38.4 4.266667-55.466667v-4.266666h4.266666c42.666667-21.333333 81.066667-55.466667 102.4-98.133334 25.6-42.666667 34.133333-89.6 29.866667-136.533333v-4.266667h4.266667c29.866667-25.6 64-42.666667 98.133333-55.466666h8.533333c34.133333 25.6 81.066667 38.4 132.266667 38.4z m140.8-25.6h-4.266667c-38.4 21.333333-85.333333 38.4-136.533333 38.4s-98.133333-12.8-136.533333-38.4h-8.533334c-25.6 12.8-55.466667 25.6-76.8 46.933333l-4.266666 4.266667v4.266666c0 46.933333-8.533333 93.866667-34.133334 136.533334-25.6 42.666667-59.733333 76.8-102.4 98.133333l-4.266666 4.266667V341.333333c0 17.066667-4.266667 29.866667-4.266667 42.666667 0 12.8 0 29.866667 4.266667 42.666667v4.266666l4.266666 4.266667c42.666667 21.333333 76.8 55.466667 102.4 98.133333 25.6 42.666667 34.133333 89.6 34.133334 136.533334v4.266666l4.266666 4.266667C311.466667 699.733333 341.333333 712.533333 366.933333 725.333333h8.533334c38.4-21.333333 85.333333-34.133333 136.533333-34.133333s98.133333 12.8 136.533333 34.133333h8.533334c25.6-12.8 55.466667-25.6 76.8-46.933333l4.266666-4.266667v-4.266666c0-46.933333 8.533333-93.866667 34.133334-136.533334 25.6-42.666667 59.733333-76.8 102.4-98.133333l4.266666-4.266667v-4.266666c0-17.066667 4.266667-29.866667 4.266667-42.666667 0-12.8 0-29.866667-4.266667-42.666667v-4.266666l-4.266666-4.266667c-42.666667-21.333333-76.8-55.466667-102.4-98.133333-25.6-42.666667-34.133333-89.6-34.133334-136.533334v-4.266666l-4.266666-4.266667c-25.6-17.066667-51.2-34.133333-76.8-46.933333h-4.266667z m-345.6 59.733333l64-38.4c38.4 25.6 89.6 38.4 140.8 38.4s102.4-12.8 140.8-38.4c21.333333 8.533333 42.666667 21.333333 64 38.4 0 46.933333 12.8 98.133333 38.4 140.8 25.6 42.666667 64 81.066667 106.666667 102.4V384v38.4c-42.666667 25.6-81.066667 59.733333-106.666667 102.4-25.6 42.666667-38.4 93.866667-38.4 140.8l-64 38.4c-38.4-25.6-89.6-38.4-140.8-38.4s-102.4 12.8-140.8 38.4c-21.333333-8.533333-42.666667-21.333333-64-38.4 0-46.933333-12.8-98.133333-38.4-140.8-25.6-42.666667-64-81.066667-106.666667-102.4v-76.8c42.666667-25.6 81.066667-59.733333 106.666667-102.4 25.6-42.666667 38.4-93.866667 38.4-140.8zM503.466667 243.2c-76.8 0-140.8 64-140.8 140.8s64 140.8 140.8 140.8c76.8 0 140.8-64 140.8-140.8s-59.733333-140.8-140.8-140.8z m0 247.466667c-59.733333 0-106.666667-46.933333-106.666667-106.666667s46.933333-106.666667 106.666667-106.666667 106.666667 46.933333 106.666666 106.666667-46.933333 106.666667-106.666666 106.666667zM503.466667 230.4c-85.333333 0-153.6 68.266667-153.6 153.6s68.266667 153.6 153.6 153.6 153.6-68.266667 153.6-153.6-68.266667-153.6-153.6-153.6z m0 285.866667c-72.533333 0-132.266667-59.733333-132.266667-132.266667 0-72.533333 59.733333-132.266667 132.266667-132.266667 72.533333 0 132.266667 59.733333 132.266666 132.266667 0 72.533333-59.733333 132.266667-132.266666 132.266667z m0-251.733334C439.466667 264.533333 384 320 384 384s55.466667 119.466667 119.466667 119.466667c64 0 119.466667-55.466667 119.466666-119.466667s-51.2-119.466667-119.466666-119.466667z m0 217.6c-55.466667 0-98.133333-42.666667-98.133334-98.133333s42.666667-98.133333 98.133334-98.133333 98.133333 42.666667 98.133333 98.133333-42.666667 98.133333-98.133333 98.133333z"  horiz-adv-x="1024" />

    
    <glyph glyph-name="icon-sousuo" unicode="&#59354;" d="M887.466667 42.666667L725.333333 204.8c51.2 59.733333 81.066667 136.533333 81.066667 221.866667 0 187.733333-153.6 341.333333-341.333333 341.333333s-341.333333-153.6-341.333334-341.333333 153.6-341.333333 341.333334-341.333334c85.333333 0 162.133333 29.866667 221.866666 81.066667l162.133334-162.133333c4.266667-4.266667 12.8-8.533333 17.066666-8.533334 8.533333 0 12.8 4.266667 17.066667 8.533334 17.066667 12.8 17.066667 29.866667 4.266667 38.4z m-307.2 119.466666c-34.133333-17.066667-72.533333-21.333333-110.933334-21.333333s-76.8 8.533333-110.933333 21.333333-64 34.133333-89.6 59.733334c-25.6 25.6-46.933333 55.466667-59.733333 89.6-17.066667 34.133333-21.333333 72.533333-21.333334 110.933333s8.533333 76.8 21.333334 110.933333 34.133333 64 59.733333 89.6S324.266667 669.866667 358.4 682.666667c34.133333 25.6 68.266667 34.133333 110.933333 34.133333s76.8-8.533333 110.933334-21.333333 64-34.133333 89.6-59.733334c25.6-25.6 46.933333-55.466667 59.733333-89.6 17.066667-34.133333 21.333333-72.533333 21.333333-110.933333s-8.533333-76.8-21.333333-110.933333-34.133333-64-59.733333-89.6c-25.6-38.4-55.466667-59.733333-89.6-72.533334z"  horiz-adv-x="1024" />

    
    <glyph glyph-name="icon-tuichudenglu" unicode="&#59355;" d="M866.133333 405.333333l-145.066666 140.8c-12.8 12.8-29.866667 12.8-42.666667 0-12.8-12.8-12.8-29.866667 0-38.4l93.866667-93.866666h-277.333334c-17.066667 0-29.866667-12.8-29.866666-29.866667 0-17.066667 12.8-29.866667 29.866666-29.866667h277.333334l-93.866667-93.866666c-12.8-12.8-12.8-29.866667 0-38.4 4.266667-4.266667 12.8-8.533333 21.333333-8.533334s12.8 4.266667 21.333334 8.533334l145.066666 140.8s0 4.266667 4.266667 4.266666c8.533333 12.8 8.533333 29.866667-4.266667 38.4z m0 0M789.333333 187.733333c-17.066667 0-29.866667-12.8-29.866666-29.866666v-55.466667c0-17.066667-12.8-29.866667-29.866667-29.866667H234.666667c-17.066667 0-29.866667 12.8-29.866667 29.866667V661.333333c0 17.066667 12.8 29.866667 29.866667 29.866667h494.933333c17.066667 0 29.866667-12.8 29.866667-29.866667v-55.466666c0-17.066667 12.8-29.866667 29.866666-29.866667 17.066667 0 29.866667 12.8 29.866667 29.866667V661.333333c0 46.933333-38.4 85.333333-85.333333 85.333334H234.666667c-51.2 0-85.333333-34.133333-85.333334-85.333334v-558.933333c0-46.933333 38.4-85.333333 85.333334-85.333333h494.933333c51.2 0 85.333333 38.4 85.333333 85.333333v55.466667c0 21.333333-8.533333 29.866667-25.6 29.866666z"  horiz-adv-x="1024" />

    
    <glyph glyph-name="icon-wenjianjia" unicode="&#59356;" d="M512 384M874.666667 622.933333c29.866667 0 51.2-17.066667 59.733333-42.666666 4.266667-8.533333 4.266667-12.8 4.266667-21.333334V85.333333c0-34.133333-25.6-59.733333-59.733334-59.733333H145.066667c-34.133333 0-59.733333 25.6-59.733334 59.733333V622.933333h789.333334z m0 0M512 622.933333c0 64-51.2 119.466667-119.466667 119.466667H145.066667c-34.133333 0-59.733333-25.6-59.733334-64v-59.733333c29.866667 4.266667 430.933333 4.266667 426.666667 4.266666z m0 0"  horiz-adv-x="1024" />

    
    <glyph glyph-name="icon-xiazai" unicode="&#59357;" d="M896 68.266667v209.066666c0 12.8-12.8 25.6-25.6 25.6s-25.6-12.8-25.6-25.6v-183.466666H179.2v183.466666c0 12.8-12.8 25.6-25.6 25.6s-25.6-8.533333-25.6-25.6v-209.066666c0-12.8 12.8-25.6 25.6-25.6h716.8c12.8 0 25.6 12.8 25.6 25.6zM622.933333 426.666667c8.533333 8.533333 25.6 8.533333 38.4 0 8.533333-8.533333 8.533333-25.6 0-38.4l-128-157.866667c-4.266667-4.266667-12.8-8.533333-21.333333-8.533333s-12.8 0-21.333333 8.533333l-128 157.866667c-8.533333 8.533333-8.533333 25.6 0 38.4 8.533333 8.533333 25.6 8.533333 38.4 0l85.333333-102.4V699.733333c0 12.8 12.8 25.6 25.6 25.6s25.6-12.8 25.6-25.6v-375.466666l85.333333 102.4z"  horiz-adv-x="1024" />

    
    <glyph glyph-name="icon-tupianwenjian" unicode="&#59358;" d="M644.266667 810.666667H273.066667C213.333333 810.666667 166.4 763.733333 166.4 704v-640C166.4 4.266667 213.333333-42.666667 273.066667-42.666667h477.866666c59.733333 0 106.666667 46.933333 106.666667 106.666667V597.333333l-213.333333 213.333334zM699.733333 597.333333c-29.866667 0-55.466667 25.6-55.466666 55.466667V810.666667l213.333333-213.333334h-157.866667zM789.333333 81.066667h-554.666666v110.933333L401.066667 469.333333l226.133333-277.333333 162.133333 110.933333zM789.333333 443.733333c0-46.933333-38.4-81.066667-81.066666-81.066666-46.933333 0-81.066667 38.4-81.066667 81.066666s38.4 81.066667 81.066667 81.066667c42.666667 0 81.066667-38.4 81.066666-81.066667z"  horiz-adv-x="1024" />

    
    <glyph glyph-name="icon-wangyewenjian" unicode="&#59359;" d="M644.266667 810.666667H273.066667C213.333333 810.666667 166.4 763.733333 166.4 704v-640C166.4 4.266667 213.333333-42.666667 273.066667-42.666667h477.866666c59.733333 0 106.666667 46.933333 106.666667 106.666667V597.333333l-213.333333 213.333334zM699.733333 597.333333c-29.866667 0-55.466667 25.6-55.466666 55.466667V810.666667l213.333333-213.333334h-157.866667zM529.066667 366.933333h8.533333c34.133333 0 59.733333 4.266667 76.8 4.266667h4.266667c4.266667 0 4.266667 0 4.266666-4.266667v-8.533333c0-17.066667 4.266667-34.133333 4.266667-55.466667 0-17.066667 0-34.133333-4.266667-51.2v-8.533333h-4.266666-4.266667c-25.6 12.8-51.2 12.8-81.066667 12.8h-4.266666c-4.266667 0-4.266667 0-4.266667 4.266667l4.266667 106.666666c-4.266667 0-4.266667 0 0 0z m-128-110.933333v4.266667c0 17.066667-4.266667 34.133333-4.266667 51.2 0 21.333333 0 38.4 4.266667 55.466666v4.266667 4.266667h8.533333c21.333333-4.266667 46.933333-4.266667 76.8-4.266667h4.266667c4.266667 0 4.266667 0 4.266666-4.266667v-102.4c0-4.266667 0-4.266667-4.266666-4.266666h-4.266667c-29.866667 0-55.466667-4.266667-81.066667-4.266667h-4.266666c4.266667-4.266667 4.266667-4.266667 0 0 4.266667-4.266667 0-4.266667 0 0z m98.133333 277.333333V392.533333h-4.266667c-29.866667 0-55.466667 4.266667-76.8 4.266667h-4.266666-4.266667v4.266667 4.266666c12.8 55.466667 42.666667 98.133333 81.066667 128h4.266666c0 4.266667 0 4.266667 4.266667 0z m25.6 0l4.266667 4.266667s4.266667 0 4.266666-4.266667c38.4-29.866667 64-68.266667 81.066667-123.733333v-8.533333h-4.266667-4.266666c-21.333333-4.266667-46.933333-4.266667-72.533334-4.266667h-8.533333-4.266667V533.333333h4.266667z m-110.933333-307.2h4.266666c21.333333 4.266667 46.933333 4.266667 72.533334 4.266667h8.533333V85.333333s0-4.266667-4.266667-4.266666h-4.266666l-4.266667 4.266666c-38.4 29.866667-64 72.533333-81.066667 128v8.533334c4.266667 0 4.266667 0 8.533334 4.266666-4.266667 0-4.266667 0 0 0z m200.533333-4.266666v-4.266667c-12.8-55.466667-38.4-98.133333-76.8-128 0 0-4.266667 0-4.266667-4.266667h-4.266666l-4.266667 4.266667v140.8 4.266667H537.6c25.6 0 51.2 0 72.533333-4.266667h4.266667v-8.533333z m34.133333 85.333333c0 21.333333 0 38.4-4.266666 55.466667v8.533333c0 4.266667 0 4.266667 4.266666 4.266667h4.266667c29.866667 8.533333 51.2 17.066667 68.266667 25.6h4.266666s4.266667 0 4.266667-4.266667c0 0 0-4.266667 4.266667-4.266667 12.8-29.866667 21.333333-59.733333 21.333333-93.866666 0-29.866667-4.266667-59.733333-17.066667-85.333334v-4.266666l-4.266666-4.266667h-4.266667c-17.066667 12.8-42.666667 21.333333-68.266667 25.6h-4.266666c-4.266667 0-4.266667 4.266667-4.266667 4.266667v4.266666c-4.266667 34.133333-4.266667 51.2-4.266667 68.266667z m-59.733333 226.133333c46.933333-17.066667 89.6-46.933333 119.466667-89.6 0 0 4.266667-4.266667 4.266666-8.533333v-4.266667l-8.533333-4.266666c-12.8-8.533333-29.866667-17.066667-55.466667-21.333334h-4.266666c-4.266667 0-4.266667 0-4.266667 4.266667v4.266667c-12.8 51.2-34.133333 89.6-64 123.733333v4.266667h4.266667c0-8.533333 4.266667-8.533333 8.533333-8.533334z m55.466667-311.466666h4.266666c25.6-4.266667 42.666667-12.8 59.733334-21.333334l4.266666-4.266666s4.266667-4.266667 0-4.266667c0-4.266667-4.266667-4.266667-4.266666-4.266667-29.866667-46.933333-72.533333-81.066667-128-98.133333 0 0-4.266667 0-8.533334-4.266667h-4.266666v4.266667c29.866667 34.133333 51.2 72.533333 64 123.733333v8.533334c8.533333-4.266667 12.8 0 12.8 0z m-345.6-4.266667h-4.266667s-4.266667 0-4.266667 4.266667c-12.8 25.6-17.066667 55.466667-17.066666 89.6s8.533333 64 17.066666 93.866666c0 0 0 4.266667 4.266667 4.266667l4.266667 4.266667h8.533333c17.066667-12.8 38.4-21.333333 64-25.6h4.266667c4.266667 0 4.266667-4.266667 4.266666-4.266667v-8.533333c-4.266667-17.066667-4.266667-38.4-4.266666-59.733334 0-17.066667 0-38.4 4.266666-55.466666v-4.266667c0-4.266667 0-4.266667-4.266666-4.266667h-4.266667c-29.866667-12.8-51.2-21.333333-72.533333-34.133333z m153.6 315.733333c-34.133333-29.866667-55.466667-72.533333-68.266667-123.733333 0-4.266667-4.266667-4.266667-4.266667-4.266667h-4.266666c-25.6 4.266667-42.666667 12.8-55.466667 21.333334l-4.266667 4.266666s-4.266667 4.266667 0 4.266667c0 0 0 4.266667 4.266667 4.266667 29.866667 42.666667 72.533333 76.8 123.733333 89.6-4.266667 4.266667 0 8.533333 8.533334 4.266666 0 4.266667 0 4.266667 0 0z m-140.8-341.333333l4.266666 4.266667c12.8 8.533333 34.133333 17.066667 59.733334 21.333333H384v-8.533333c12.8-51.2 34.133333-89.6 64-123.733334v-4.266666h-4.266667c-55.466667 17.066667-102.4 55.466667-136.533333 102.4 0 0 0 4.266667-4.266667 4.266666 4.266667 0 4.266667 4.266667 8.533334 4.266667z m0 0"  horiz-adv-x="1024" />

    
    <glyph glyph-name="icon-xinjianwenjianjia" unicode="&#59360;" d="M435.2 725.333333H183.466667C153.6 725.333333 128 699.733333 128 674.133333v-576c0-29.866667 25.6-55.466667 55.466667-55.466666h657.066666c29.866667 0 55.466667 25.6 55.466667 51.2V567.466667c0 29.866667-25.6 51.2-55.466667 51.2h-251.733333c-12.8 0-29.866667 4.266667-38.4 17.066666l-76.8 72.533334c-12.8 12.8-25.6 17.066667-38.4 17.066666m0-51.2L512 597.333333c21.333333-21.333333 46.933333-29.866667 76.8-29.866666h251.733333v-473.6H183.466667V674.133333h251.733333M537.6 332.8h110.933333c17.066667 0 25.6 12.8 25.6 25.6s-12.8 25.6-25.6 25.6h-110.933333V490.666667c0 12.8-12.8 25.6-25.6 25.6s-25.6-12.8-25.6-25.6V384H375.466667c-17.066667 0-25.6-12.8-25.6-25.6s12.8-25.6 25.6-25.6h110.933333v-106.666667c0-12.8 12.8-25.6 25.6-25.6s25.6 12.8 25.6 25.6v106.666667z m0 0"  horiz-adv-x="1024" />

    
    <glyph glyph-name="icon-xuanzhong" unicode="&#59361;" d="M128 0h768V768L128 0z m733.866667 362.666667L584.533333 85.33333300000004c-4.266667-4.266667-12.8-8.533333-21.333333-8.533333s-12.8 4.266667-21.333333 8.533333L426.666667 200.53333299999997c-4.266667 4.266667-8.533333 12.8-8.533334 21.333334s4.266667 12.8 8.533334 21.333333c12.8 12.8 29.866667 12.8 38.4 0l93.866666-93.866667 256 256c12.8 12.8 29.866667 12.8 38.4 0 17.066667-12.8 17.066667-29.866667 8.533334-42.666666z"  horiz-adv-x="1024" />

    
    <glyph glyph-name="icon-yasuobao" unicode="&#59362;" d="M128 512h768v-260.266667H128zM896 512V721.066667c0 25.6-21.333333 46.933333-46.933333 46.933333H174.933333C149.333333 768 128 746.666667 128 721.066667V512h768zM128 256v-204.8c0-29.866667 21.333333-51.2 46.933333-51.2h674.133334c25.6 0 46.933333 21.333333 46.933333 46.933333V256H128z m0 0M426.666667 768h170.666666v-768h-170.666666zM601.6 435.2v-106.666667H422.4v106.666667h179.2m25.6 42.666667H392.533333c-4.266667 0-12.8-4.266667-12.8-12.8v-170.666667c0-4.266667 4.266667-12.8 12.8-12.8h238.933334c4.266667 0 12.8 4.266667 12.8 12.8v170.666667c-8.533333 8.533333-12.8 12.8-17.066667 12.8z m0 0"  horiz-adv-x="1024" />

    
    <glyph glyph-name="icon-yinpinwenjian" unicode="&#59363;" d="M644.266667 810.666667H273.066667C213.333333 810.666667 166.4 763.733333 166.4 704v-640C166.4 4.266667 213.333333-42.666667 273.066667-42.666667h477.866666c59.733333 0 106.666667 46.933333 106.666667 106.666667V597.333333l-213.333333 213.333334zM699.733333 597.333333c-29.866667 0-55.466667 25.6-55.466666 55.466667V810.666667l213.333333-213.333334h-157.866667zM635.733333 554.666667l-192-59.733334c-21.333333-8.533333-42.666667-29.866667-42.666666-55.466666v-200.533334s-12.8 8.533333-42.666667 4.266667c-46.933333-8.533333-81.066667-42.666667-81.066667-76.8 0-38.4 38.4-59.733333 81.066667-51.2 46.933333 8.533333 76.8 38.4 76.8 76.8V384c0 17.066667 21.333333 21.333333 21.333333 21.333333l170.666667 51.2s17.066667 4.266667 17.066667-12.8v-162.133333s-17.066667 8.533333-46.933334 4.266667c-46.933333 4.266667-85.333333-29.866667-85.333333-64 0-38.4 38.4-59.733333 81.066667-55.466667 46.933333 4.266667 81.066667 38.4 81.066666 76.8V524.8c0 21.333333-17.066667 34.133333-38.4 29.866667z m0 0"  horiz-adv-x="1024" />

    
    <glyph glyph-name="icon-yonghu" unicode="&#59364;" d="M512 810.666667C277.333333 810.666667 85.333333 618.666667 85.333333 384s192-426.666667 426.666667-426.666667 426.666667 192 426.666667 426.666667S746.666667 810.666667 512 810.666667z m8.533333-128C682.666667 682.666667 682.666667 558.933333 682.666667 490.666667s-64-196.266667-162.133334-200.533334c-93.866667 0-162.133333 128-162.133333 200.533334 0 68.266667 0 192 162.133333 192zM512-17.066667c-123.733333 0-234.666667 55.466667-307.2 145.066667 12.8 25.6 25.6 55.466667 42.666667 72.533333 38.4 29.866667 157.866667 85.333333 157.866666 85.333334l76.8-145.066667 12.8 34.133333-21.333333 42.666667 42.666667 42.666667 42.666666-42.666667-21.333333-46.933333 12.8-34.133334 76.8 140.8s119.466667-51.2 157.866667-85.333333c17.066667-12.8 29.866667-38.4 38.4-59.733333-68.266667-89.6-183.466667-149.333333-311.466667-149.333334z m0 0"  horiz-adv-x="1024" />

    
    <glyph glyph-name="icon-zanting" unicode="&#59365;" d="M512 768c-213.333333 0-384-170.666667-384-384s170.666667-384 384-384 384 170.666667 384 384-170.666667 384-384 384z m0-716.8c-183.466667 0-332.8 149.333333-332.8 332.8S328.533333 716.8 512 716.8s332.8-149.333333 332.8-332.8-149.333333-332.8-332.8-332.8z m0 0M443.733333 512c-17.066667 0-25.6-8.533333-25.6-25.6v-209.066667c0-12.8 12.8-25.6 25.6-25.6s25.6 12.8 25.6 25.6V486.4c0 17.066667-12.8 25.6-25.6 25.6z m136.533334 0c-12.8 0-25.6-8.533333-25.6-25.6v-209.066667c0-12.8 12.8-25.6 25.6-25.6s25.6 12.8 25.6 25.6V486.4c0 17.066667-8.533333 25.6-25.6 25.6z m0 0"  horiz-adv-x="1024" />

    
    <glyph glyph-name="icon-zhongzhi" unicode="&#59366;" d="M836.266667 277.333333c-12.8 0-25.6-8.533333-29.866667-21.333333-42.666667-115.2-153.6-196.266667-285.866667-196.266667-166.4 0-302.933333 136.533333-302.933333 302.933334s136.533333 302.933333 302.933333 302.933333c34.133333 0 64-4.266667 93.866667-12.8L584.533333 597.333333c-4.266667-4.266667 0-12.8 4.266667-17.066666h8.533333l179.2 12.8c4.266667 0 8.533333 4.266667 8.533334 8.533333v12.8l-98.133334 149.333333L682.666667 768c-4.266667 4.266667-12.8 0-17.066667-4.266667L640 708.266667c-38.4 12.8-76.8 21.333333-119.466667 21.333333-200.533333 0-362.666667-162.133333-362.666666-362.666667S320 0 520.533333 0c157.866667 0 290.133333 93.866667 341.333334 234.666667 4.266667 4.266667 4.266667 8.533333 4.266666 12.8 0 17.066667-12.8 29.866667-29.866666 29.866666z"  horiz-adv-x="1024" />

    
    <glyph glyph-name="icon-zhanghao" unicode="&#59367;" d="M516.266667 768C405.333333 768 315.733333 678.4 315.733333 571.733333c0-106.666667 89.6-196.266667 200.533334-196.266666s200.533333 89.6 200.533333 196.266666c0 106.666667-89.6 196.266667-200.533333 196.266667z m0 0M128 0h768c0 192-170.666667 349.866667-384 349.866667S128 192 128 0z m0 0"  horiz-adv-x="1024" />

    
    <glyph glyph-name="zuixiaohua" unicode="&#59368;" d="M785.066667 358.4H238.933333c-12.8 0-25.6 12.8-25.6 25.6s12.8 25.6 25.6 25.6h550.4c12.8 0 25.6-12.8 25.6-25.6-4.266667-12.8-17.066667-25.6-29.866666-25.6z"  horiz-adv-x="1024" />

    
    <glyph glyph-name="guanbi" unicode="&#59369;" d="M780.8 618.666667L277.333333 115.2c-8.533333-8.533333-25.6-8.533333-34.133333 0-8.533333 8.533333-8.533333 25.6 0 34.133333L746.666667 652.8c8.533333 8.533333 25.6 8.533333 34.133333 0 12.8-8.533333 12.8-25.6 0-34.133333zM277.333333 652.8l503.466667-503.466667c8.533333-8.533333 8.533333-25.6 0-34.133333-8.533333-8.533333-25.6-8.533333-34.133333 0L243.2 618.666667c-8.533333 8.533333-8.533333 25.6 0 34.133333 8.533333 12.8 25.6 12.8 34.133333 0z"  horiz-adv-x="1024" />

    
    <glyph glyph-name="zidongbianmu" unicode="&#59370;" d="M891.733333 435.2c-42.666667 0-76.8-29.866667-85.333333-68.266667h-29.866667V610.133333h29.866667c12.8-42.666667 51.2-72.533333 98.133333-68.266666 42.666667 4.266667 76.8 42.666667 76.8 89.6s-34.133333 81.066667-76.8 89.6c-42.666667 4.266667-85.333333-21.333333-98.133333-68.266667h-46.933333c-34.133333 55.466667-76.8 98.133333-123.733334 128-42.666667 29.866667-93.866667 46.933333-149.333333 51.2h-34.133333c-68.266667 0-128-21.333333-179.2-59.733333-46.933333-38.4-85.333333-93.866667-110.933334-170.666667-25.6-128-59.733333-209.066667-93.866666-247.466667-12.8-12.8-21.333333-25.6-25.6-38.4 0-8.533333 0-21.333333 8.533333-29.866666 12.8-17.066667 34.133333-25.6 55.466667-25.6 4.266667 0 12.8-4.266667 17.066666-8.533334 4.266667-4.266667 8.533333-12.8 12.8-21.333333 4.266667-17.066667 8.533333-46.933333 8.533334-85.333333 0-17.066667 8.533333-34.133333 17.066666-42.666667 12.8-12.8 34.133333-17.066667 59.733334-17.066667 34.133333 0 59.733333-8.533333 76.8-21.333333 12.8-12.8 17.066667-29.866667 17.066666-51.2v-72.533333l345.6-4.266667v174.933333c4.266667 4.266667 8.533333 12.8 12.8 17.066667 29.866667 42.666667 55.466667 76.8 72.533334 106.666667 8.533333 17.066667 17.066667 29.866667 21.333333 42.666666 0 4.266667 4.266667 8.533333 4.266667 12.8V328.53333299999997h29.866666c12.8-46.933333 55.466667-72.533333 102.4-64 46.933333 8.533333 76.8 51.2 72.533334 93.866667 0 42.666667-38.4 76.8-85.333334 76.8z m-157.866666-68.266667H597.333333V610.133333h136.533334v-243.2z m157.866666 311.466667c17.066667 0 34.133333-12.8 42.666667-25.6 4.266667-17.066667 4.266667-38.4-8.533333-51.2-12.8-12.8-34.133333-17.066667-46.933334-8.533333-17.066667 8.533333-29.866667 21.333333-29.866666 42.666666s17.066667 42.666667 42.666666 42.666667z m-187.733333-21.333333H554.666667V512H409.6c-8.533333 21.333333-29.866667 42.666667-51.2 51.2 0 38.4 8.533333 76.8 29.866667 106.666667 21.333333 42.666667 59.733333 81.066667 110.933333 115.2 81.066667-8.533333 149.333333-51.2 204.8-128z m-379.733333-221.866667c-17.066667 0-34.133333 12.8-42.666667 25.6-4.266667 17.066667 0 38.4 12.8 51.2 12.8 12.8 29.866667 17.066667 46.933333 8.533333 17.066667-8.533333 29.866667-21.333333 29.866667-42.666666s-21.333333-42.666667-46.933333-42.666667z m302.933333-302.933333l-8.533333-12.8v-140.8l-256 4.266666v29.866667c0 34.133333-12.8 64-34.133334 85.333333-25.6 25.6-59.733333 38.4-106.666666 38.4-21.333333 0-29.866667 4.266667-29.866667 4.266667v8.533333c0 42.666667-4.266667 76.8-12.8 102.4-4.266667 17.066667-12.8 29.866667-21.333333 38.4-12.8 12.8-29.866667 21.333333-46.933334 21.333334-8.533333 0-12.8 4.266667-17.066666 4.266666 0 4.266667 4.266667 8.533333 8.533333 12.8 42.666667 46.933333 81.066667 132.266667 106.666667 268.8 21.333333 64 51.2 110.933333 89.6 145.066667 34.133333 29.866667 76.8 42.666667 123.733333 46.933333-68.266667-59.733333-102.4-136.533333-110.933333-221.866666-46.933333-4.266667-76.8-46.933333-72.533334-93.866667 4.266667-46.933333 42.666667-81.066667 89.6-81.066667h4.266667c0-4.266667 4.266667-8.533333 4.266667-17.066666 12.8-42.666667 29.866667-76.8 55.466666-106.666667 42.666667-55.466667 119.466667-98.133333 234.666667-136.533333 0 4.266667 0 0 0 0z m106.666667 166.4c0-4.266667-4.266667-8.533333-4.266667-8.533334-4.266667-8.533333-8.533333-21.333333-17.066667-34.133333-12.8-21.333333-29.866667-46.933333-51.2-81.066667-115.2 34.133333-187.733333 72.533333-230.4 123.733334-25.6 29.866667-38.4 64-51.2 106.666666 21.333333 12.8 34.133333 34.133333 38.4 59.733334H554.666667v-140.8h179.2v-25.6z m157.866666 4.266666c-17.066667 0-34.133333 12.8-42.666666 25.6-8.533333 17.066667-4.266667 34.133333 8.533333 46.933334 12.8 12.8 34.133333 17.066667 46.933333 8.533333 17.066667-8.533333 29.866667-21.333333 29.866667-42.666667 4.266667-21.333333-17.066667-38.4-42.666667-38.4z m0 0M669.866667-72.53333299999997h-8.533334l-349.866666 4.266666v81.066667c0 21.333333-4.266667 38.4-17.066667 46.933333-12.8 12.8-38.4 21.333333-72.533333 21.333334-25.6 0-46.933333 4.266667-59.733334 17.066666-12.8 8.533333-21.333333 25.6-21.333333 46.933334 0 38.4-4.266667 64-8.533333 85.333333-4.266667 8.533333-4.266667 17.066667-8.533334 17.066667-4.266667 4.266667-8.533333 4.266667-12.8 4.266666-21.333333 0-46.933333 12.8-59.733333 29.866667-8.533333 8.533333-8.533333 21.333333-8.533333 34.133333 4.266667 12.8 12.8 29.866667 25.6 42.666667 38.4 38.4 68.266667 119.466667 93.866666 243.2 25.6 76.8 64 136.533333 110.933334 174.933333 46.933333 38.4 110.933333 59.733333 183.466666 59.733334h38.4c55.466667-4.266667 106.666667-21.333333 149.333334-51.2 46.933333-29.866667 85.333333-72.533333 123.733333-128h38.4c12.8 42.666667 55.466667 72.533333 102.4 68.266666 46.933333-4.266667 85.333333-46.933333 85.333333-93.866666s-34.133333-89.6-85.333333-93.866667c-46.933333-4.266667-89.6 21.333333-102.4 68.266667h-17.066667v-230.4h17.066667c12.8 38.4 51.2 68.266667 89.6 68.266666 51.2 0 89.6-38.4 93.866667-89.6 4.266667-51.2-29.866667-93.866667-81.066667-102.4h-17.066667c-42.666667 0-76.8 25.6-89.6 68.266667h-17.066666v-34.133333c0-4.266667-4.266667-8.533333-4.266667-17.066667-4.266667-12.8-12.8-25.6-21.333333-42.666667-17.066667-25.6-42.666667-64-72.533334-106.666666v-8.533334H682.666667c-4.266667-4.266667-4.266667-8.533333-8.533334-12.8v-170.666666z m-345.6 17.066666l332.8-4.266666v170.666666c4.266667 4.266667 8.533333 8.533333 12.8 17.066667l4.266666 4.266667c29.866667 42.666667 55.466667 76.8 68.266667 102.4 8.533333 17.066667 17.066667 29.866667 21.333333 38.4 0 4.266667 4.266667 8.533333 4.266667 12.8V324.266667h42.666667v-4.266667c8.533333-38.4 42.666667-59.733333 81.066666-59.733333h12.8c42.666667 8.533333 72.533333 46.933333 68.266667 89.6-4.266667 42.666667-38.4 76.8-81.066667 76.8-38.4 0-72.533333-25.6-81.066666-64v-4.266667h-42.666667v256h42.666667v-4.266667c8.533333-38.4 46.933333-68.266667 89.6-59.733333 42.666667 4.266667 72.533333 42.666667 72.533333 81.066667s-29.866667 76.8-72.533333 81.066666c-42.666667 4.266667-81.066667-21.333333-89.6-59.733333v-4.266667h-55.466667v4.266667c-34.133333 55.466667-72.533333 98.133333-119.466667 123.733333-42.666667 25.6-93.866667 42.666667-145.066666 51.2-85.333333 8.533333-153.6-12.8-209.066667-55.466666-51.2-38.4-85.333333-93.866667-110.933333-166.4-25.6-128-59.733333-213.333333-98.133334-251.733334-12.8-12.8-21.333333-25.6-21.333333-34.133333 0-8.533333 0-17.066667 4.266667-25.6 8.533333-12.8 29.866667-25.6 51.2-25.6 8.533333 0 17.066667-4.266667 21.333333-8.533333 4.266667-4.266667 8.533333-12.8 12.8-25.6 8.533333-21.333333 8.533333-51.2 8.533333-89.6 0-17.066667 4.266667-29.866667 17.066667-38.4 12.8-8.533333 29.866667-12.8 55.466667-12.8 38.4 0 64-8.533333 81.066666-25.6 12.8-12.8 21.333333-34.133333 21.333334-55.466667v-68.266667z m298.666666 25.6h-8.533333l-260.266667 4.266667v34.133333c0 34.133333-8.533333 59.733333-29.866666 81.066667-21.333333 21.333333-59.733333 34.133333-102.4 34.133333-21.333333 0-29.866667 4.266667-34.133334 8.533334 0 0-4.266667 4.266667-4.266666 12.8 0 42.666667-4.266667 76.8-12.8 98.133333-4.266667 17.066667-12.8 25.6-21.333334 38.4-12.8 12.8-25.6 17.066667-42.666666 17.066667v8.533333-8.533333c-8.533333 0-17.066667 4.266667-21.333334 8.533333l-4.266666 4.266667v4.266666c0 4.266667 4.266667 8.533333 12.8 17.066667 42.666667 42.666667 76.8 132.266667 106.666666 264.533333C221.866667 661.333333 256 712.533333 298.666667 746.666667c34.133333 29.866667 76.8 42.666667 128 46.933333h21.333333l-12.8-12.8c-72.533333-55.466667-110.933333-128-115.2-213.333333v-4.266667h-4.266667C268.8 554.666667 238.933333 516.266667 243.2 473.6c4.266667-42.666667 38.4-76.8 81.066667-76.8h8.533333l4.266667-4.266667c0-4.266667 4.266667-8.533333 4.266666-17.066666 12.8-42.666667 29.866667-76.8 55.466667-102.4 46.933333-55.466667 119.466667-98.133333 234.666667-132.266667l8.533333-4.266667-8.533333-8.533333-8.533334-12.8v-145.066667z m-256 17.066667l243.2-4.266667v136.533334l8.533334 8.533333c-110.933333 34.133333-187.733333 76.8-230.4 132.266667-25.6 29.866667-42.666667 64-55.466667 106.666666 0 4.266667 0 8.533333-4.266667 8.533334-51.2 0-89.6 38.4-93.866666 89.6-8.533333 55.466667 25.6 98.133333 72.533333 110.933333 8.533333 81.066667 42.666667 149.333333 102.4 209.066667-38.4-4.266667-72.533333-21.333333-102.4-42.666667-42.666667-38.4-72.533333-85.333333-93.866667-149.333333-25.6-136.533333-64-226.133333-110.933333-273.066667-4.266667-4.266667-4.266667-4.266667-4.266667-8.533333h8.533334c21.333333 0 38.4-8.533333 51.2-21.333334 8.533333-8.533333 17.066667-25.6 25.6-42.666666 8.533333-25.6 12.8-59.733333 12.8-102.4v-4.266667c4.266667 0 8.533333-4.266667 25.6-4.266667 46.933333 0 85.333333-12.8 110.933333-38.4 21.333333-21.333333 34.133333-51.2 34.133333-89.6v-21.333333z m290.133334 179.2h-4.266667c-119.466667 34.133333-192 72.533333-234.666667 123.733333-25.6 29.866667-42.666667 64-51.2 110.933334v4.266666l4.266667 4.266667c21.333333 12.8 34.133333 34.133333 38.4 55.466667V469.333333h149.333333v-140.8h179.2v-34.133333c0-4.266667 0-4.266667-4.266666-8.533333-4.266667-8.533333-8.533333-21.333333-21.333334-34.133334-8.533333-21.333333-29.866667-51.2-55.466666-85.333333z m-277.333334 234.666667c8.533333-42.666667 25.6-72.533333 46.933334-98.133334 42.666667-51.2 110.933333-85.333333 226.133333-119.466666 21.333333 29.866667 38.4 55.466667 51.2 76.8 8.533333 12.8 12.8 25.6 17.066667 34.133333 0 4.266667 0 4.266667 4.266666 8.533333v17.066667h-179.2v140.8h-128c-4.266667-25.6-17.066667-46.933333-38.4-59.733333z m512-106.666667c-21.333333 0-38.4 12.8-46.933333 29.866667s-4.266667 42.666667 12.8 55.466666c12.8 12.8 38.4 17.066667 55.466667 12.8 21.333333-8.533333 29.866667-25.6 29.866666-46.933333 0-12.8-4.266667-25.6-17.066666-34.133333s-21.333333-17.066667-34.133334-17.066667z m0 89.6c-8.533333 0-21.333333-4.266667-25.6-12.8-12.8-12.8-12.8-25.6-8.533333-42.666667 4.266667-12.8 21.333333-25.6 34.133333-25.6 8.533333 0 21.333333 4.266667 25.6 12.8s12.8 17.066667 12.8 25.6c0 17.066667-8.533333 29.866667-25.6 34.133334-4.266667 8.533333-8.533333 8.533333-12.8 8.533333z m-157.866666-21.333333h-140.8v256h149.333333v-251.733334h-4.266667v-4.266666z m-132.266667 12.8H725.333333V605.866667h-123.733333v-230.4z m-277.333333 55.466666c-21.333333 0-38.4 12.8-46.933334 29.866667-8.533333 21.333333-4.266667 42.666667 12.8 55.466667 12.8 12.8 38.4 17.066667 55.466667 12.8 21.333333-8.533333 29.866667-25.6 29.866667-46.933334 0-29.866667-21.333333-51.2-51.2-51.2z m0 89.6c-8.533333 0-17.066667-4.266667-25.6-12.8-12.8-12.8-12.8-25.6-8.533334-42.666666s21.333333-25.6 34.133334-25.6c21.333333 0 38.4 17.066667 38.4 38.4 0 17.066667-8.533333 29.866667-25.6 34.133333 0 4.266667-4.266667 8.533333-12.8 8.533333z m234.666666-17.066666H405.333333v4.266666c-8.533333 25.6-25.6 42.666667-51.2 51.2h-4.266666v4.266667c4.266667 42.666667 12.8 76.8 29.866666 110.933333 25.6 42.666667 59.733333 85.333333 110.933334 119.466667h4.266666c85.333333-12.8 153.6-55.466667 213.333334-132.266667l8.533333-8.533333h-157.866667v-149.333333z m-145.066666 12.8h132.266666V661.333333H691.2C640 729.6 576 768 499.2 780.8c-46.933333-34.133333-85.333333-72.533333-106.666667-110.933333-17.066667-34.133333-25.6-64-29.866666-102.4 25.6-8.533333 42.666667-29.866667 51.2-51.2z m477.866666 68.266666c-8.533333 0-12.8 0-21.333333 4.266667-21.333333 8.533333-29.866667 25.6-29.866667 46.933333 0 29.866667 21.333333 51.2 51.2 51.2 21.333333 0 38.4-12.8 46.933334-29.866666s4.266667-42.666667-12.8-55.466667c-8.533333-12.8-21.333333-17.066667-34.133334-17.066667z m0 93.866667v-8.533333c-21.333333 0-38.4-17.066667-38.4-38.4 0-17.066667 8.533333-29.866667 25.6-34.133334 12.8-4.266667 29.866667-4.266667 42.666667 8.533334 12.8 12.8 12.8 25.6 8.533333 42.666666-4.266667 12.8-21.333333 25.6-34.133333 25.6v4.266667zM268.8 482.133333c0-29.866667 25.6-55.466667 55.466667-55.466666 29.866667 0 55.466667 25.6 55.466666 55.466666 0 29.866667-25.6 55.466667-55.466666 55.466667-29.866667 0-55.466667-25.6-55.466667-55.466667z m0 0M836.266667 635.733333c0-29.866667 25.6-55.466667 55.466666-55.466666 29.866667 0 55.466667 25.6 55.466667 55.466666 0 29.866667-25.6 55.466667-55.466667 55.466667-29.866667 0-55.466667-25.6-55.466666-55.466667z m0 0M836.266667 345.6c0-29.866667 25.6-55.466667 55.466666-55.466667 29.866667 0 55.466667 25.6 55.466667 55.466667 0 29.866667-25.6 55.466667-55.466667 55.466667-29.866667 0-55.466667-21.333333-55.466666-55.466667z m0 0"  horiz-adv-x="1024" />

    
    <glyph glyph-name="rengongbianmu" unicode="&#59371;" d="M512 413.866667c-38.4 0-76.8 8.533333-110.933333 29.866666C332.8 482.133333 290.133333 554.666667 290.133333 635.733333 290.133333 755.2 388.266667 853.333333 512 853.333333c119.466667 0 217.6-98.133333 217.6-217.6 0-76.8-42.666667-149.333333-110.933333-187.733333-34.133333-21.333333-68.266667-34.133333-106.666667-34.133333z m0 405.333333c-102.4 0-183.466667-81.066667-183.466667-183.466667 0-64 34.133333-128 89.6-157.866666 29.866667-17.066667 59.733333-25.6 89.6-25.6 34.133333 0 64 8.533333 89.6 25.6 55.466667 34.133333 89.6 93.866667 89.6 157.866666 4.266667 98.133333-76.8 183.466667-174.933333 183.466667zM512 409.6c-38.4 0-76.8 8.533333-110.933333 29.866667C328.533333 477.866667 285.866667 554.666667 285.866667 635.733333 285.866667 759.466667 384 861.866667 512 861.866667s226.133333-102.4 226.133333-226.133334c0-81.066667-42.666667-153.6-110.933333-196.266666-38.4-21.333333-76.8-29.866667-115.2-29.866667z m0 435.2c-119.466667 0-213.333333-93.866667-213.333333-213.333333C298.666667 554.666667 341.333333 486.4 405.333333 448c64-38.4 149.333333-38.4 213.333334 0S725.333333 554.666667 725.333333 631.4666669999999c-4.266667 119.466667-98.133333 213.333333-213.333333 213.333333z m0-401.066667c-34.133333 0-64 8.533333-93.866667 25.6-59.733333 34.133333-98.133333 98.133333-98.133333 166.4 0 102.4 85.333333 187.733333 187.733333 187.733334s187.733333-85.333333 187.733334-187.733334c0-68.266667-38.4-132.266667-93.866667-162.133333-25.6-21.333333-59.733333-29.866667-89.6-29.866667zM512 810.666667C413.866667 810.666667 332.8 729.6 332.8 635.733333c0-64 34.133333-119.466667 89.6-153.6 55.466667-29.866667 123.733333-29.866667 174.933333 0 55.466667 29.866667 89.6 89.6 89.6 153.6C686.933333 729.6 605.866667 810.666667 512 810.666667zM896-85.33333300000004H128c-29.866667 0-55.466667 25.6-55.466667 55.466666v4.266667l128 362.666667c0 29.866667 25.6 55.466667 55.466667 55.466666h132.266667l55.466666-217.6 12.8 115.2-25.6 55.466667v4.266667c0 21.333333 21.333333 42.666667 46.933334 42.666666h55.466666c25.6 0 46.933333-17.066667 46.933334-42.666666v-4.266667l-25.6-55.466667 8.533333-102.4 51.2 209.066667H768c29.866667 0 55.466667-25.6 55.466667-55.466667l128-366.933333v-4.266667c0-29.866667-25.6-55.466667-55.466667-55.466666zM110.933333-29.866667000000007c0-8.533333 8.533333-17.066667 21.333334-17.066666H896c8.533333 0 17.066667 8.533333 21.333333 17.066666l-123.733333 362.666667v4.266667c0 12.8-8.533333 21.333333-21.333333 21.333333h-115.2L554.666667 21.33333300000004l-29.866667 273.066667 25.6 55.466667s-4.266667 4.266667-8.533333 4.266666h-55.466667c-4.266667 0-8.533333 0-8.533333-4.266666l25.6-55.466667-34.133334-285.866667-98.133333 345.6H256c-12.8 0-21.333333-8.533333-21.333333-21.333333v-4.266667l-123.733334-358.4zM896-93.866667H128c-34.133333 0-64 29.866667-64 64v4.266667l128 366.933333c4.266667 34.133333 29.866667 59.733333 64 59.733334h136.533333l46.933334-187.733334 8.533333 76.8-21.333333 55.466667v4.266667c0 25.6 25.6 46.933333 55.466666 46.933333h55.466667c29.866667 0 55.466667-21.333333 55.466667-46.933333v-4.266667l-21.333334-55.466667 8.533334-64 46.933333 179.2H768c34.133333 0 59.733333-25.6 64-59.733333l128-366.933333v-4.266667c-4.266667-38.4-29.866667-68.266667-64-68.266667zM81.066667-25.600000000000023c0-29.866667 21.333333-51.2 51.2-51.2H896c25.6 0 51.2 21.333333 51.2 51.2l-128 366.933333c0 25.6-21.333333 46.933333-51.2 46.933334h-140.8l-59.733333-238.933334-12.8 140.8 21.333333 55.466667v4.266667c0 21.333333-17.066667 34.133333-42.666667 34.133333h-55.466666c-21.333333 0-42.666667-17.066667-42.666667-34.133333v-4.266667l25.6-55.466667-17.066667-153.6L384 388.266667H256c-25.6 0-46.933333-21.333333-51.2-46.933334l-123.733333-366.933333z m814.933333-29.866667H128c-12.8 0-25.6 8.533333-25.6 25.6l123.733333 366.933334c0 12.8 12.8 25.6 25.6 25.6h110.933334l93.866666-320 29.866667 251.733333-25.6 55.466667 4.266667 4.266666c4.266667 4.266667 8.533333 8.533333 17.066666 8.533334h55.466667c8.533333 0 12.8-4.266667 17.066667-8.533334l4.266666-4.266666-25.6-59.733334 29.866667-243.2 89.6 311.466667H768c12.8 0 25.6-12.8 25.6-25.6l128-362.666667c-4.266667-17.066667-12.8-25.6-25.6-25.6z m-780.8 25.6c4.266667-8.533333 8.533333-12.8 12.8-12.8h768c4.266667 0 12.8 4.266667 12.8 12.8l-123.733333 362.666667v4.266667c0 8.533333-4.266667 12.8-12.8 12.8h-110.933334l-102.4-362.666667-34.133333 307.2 21.333333 51.2H486.4l21.333333-51.2-38.4-315.733333-106.666666 371.2H256c-8.533333 0-12.8-8.533333-12.8-12.8v-4.266667l-128-362.666667zM682.666667 140.79999999999995l-12.8-68.266667 55.466666 34.133334 59.733334-34.133334-12.8 68.266667 46.933333 46.933333-64 8.533334L725.333333 256l-25.6-59.733333-64-8.533334 46.933334-46.933333z"  horiz-adv-x="1024" />

    


  </font>
</defs>
</svg>
